<svg xmlns="http://www.w3.org/2000/svg" viewBox="0 0 512 512" id="doctor"><path fill="#ebdee5" d="M256 507.1c92.6 0 173.5-50.1 217-124.7-43.2-75-124.2-125.5-217-125.5S82.2 307.3 39 382.4C82.5 457 163.4 507.1 256 507.1z"></path><path fill="#fff" d="M78.5 330.7c-15.3 15.4-28.6 32.7-39.5 51.7 10.9 18.7 24.2 35.9 39.5 51.2V330.7z"></path><path fill="#c6bec3" d="M382 290.6v136c0 16.7-14 30.4-30.7 30.4h-246c42 31 94.2 50.2 150.7 50.2 92.6 0 173.7-50.2 217.2-124.8-21.9-38-54.2-69.8-91.2-91.8z"></path><path fill="#00bfb6" d="M227.6 505.5c9.3 1.1 18.8 1.6 28.4 1.6 9.6 0 19.1-.5 28.4-1.6V258.4c-9.3-1.1-18.8-1.6-28.4-1.6s-19.1.6-28.4 1.6v247.1z"></path><path fill="#017068" d="M284 505.5V457h-56v48.5c9 1.1 18.4 1.6 28 1.6 9.6 0 19-.6 28-1.6z"></path><path fill="#f29f18" d="m256 297.2-28.4-28.5v-39.8h56.8v39.8zM324.7 155.1h24.5c13.5 0 24.5-11 24.5-24.5s-11-24.5-24.5-24.5h-24.5v49zm-137.4 0h-24.5c-13.5 0-24.5-11-24.5-24.5s11-24.5 24.5-24.5h24.5v49z"></path><path fill="#f4bc62" d="M256 238.8c-44.4 0-80.4-36-80.4-80.4v-55.9c0-44.4 36-80.4 80.4-80.4 44.4 0 80.4 36 80.4 80.4v55.9c0 44.4-36 80.4-80.4 80.4z"></path><path fill="#f29f18" d="M255.8 22h.1c-4.2 0-8.2.4-12.2 1 38.6 5.9 68.3 39.3 68.3 79.5v55.9c0 40.3-29.6 73.7-68.2 79.6 4 .6 8.1 1 12.2 1h-.2c44.4 0 80.2-36.2 80.2-80.6v-55.9c0-44.4-35.8-80.5-80.2-80.5z"></path><path fill="#999" d="M193.2 16.7v71c0 10.2-8.3 18.5-18.5 18.5h-12.4V47.5c.1-17 13.9-30.8 30.9-30.8z"></path><path fill="#3f3f3f" d="M317.8 16.7h-21.2v58c0 17.4 14.1 31.4 31.4 31.4h21.2v-58c0-17.4-14.1-31.4-31.4-31.4z"></path><path fill="#595959" d="M296.8 16.7h-.3v58c0 17.4 14.1 31.4 31.4 31.4h.3v-58c.1-17.4-14-31.4-31.4-31.4z"></path><path fill="#999" d="M205.5 4.9h78.7c6.8 0 12.3 5.5 12.3 12.3v47.6c0 13.2-10.7 23.9-23.9 23.9h-79.5V17.2c0-6.8 5.6-12.3 12.4-12.3z"></path><path fill="#595959" d="M223.2 4.9h61c6.8 0 12.3 5.5 12.3 12.3v47.6c0 13.2-10.7 23.9-23.9 23.9h-61.7V17.2c0-6.8 5.5-12.3 12.3-12.3zM211 115h25v10h-25zM231 135h10v19h-10zM276 115h25v10h-25zM271 135h10v19h-10z"></path><path fill="#734b0b" d="M256 196.2c-13.5 0-24.5-11-24.5-24.5h9.8c0 8.1 6.6 14.7 14.7 14.7s14.7-6.6 14.7-14.7h9.8c0 13.5-11 24.5-24.5 24.5zM344.3 125.7h9.8v9.8h-9.8zM157.9 125.7h9.8v9.8h-9.8z"></path><path fill="#fff" d="M227.6 258.4c-7.9.9-15.8 2.2-23.5 3.8l-33.3 74.2H206l-35.2 45.1 33.7 120.3c7.6 1.6 15.3 2.8 23.1 3.7V258.4zm56.8 247.1c7.8-.9 15.5-2.1 23.1-3.7l33.8-119.3-35.3-47.1h35.3L308 262.2c-7.7-1.6-15.6-2.9-23.6-3.8v247.1z"></path><path fill="#ebdee5" d="m191.9 457 12.8 44.8c7.6 1.6 15.3 2.8 23.3 3.7V457h-36.1zm128.3 0H284v48.5c8-.9 15.7-2.2 23.3-3.7l12.9-44.8z"></path><path fill="#595959" d="M376.6 287.8v101.6h9.8v-95.9c-3.2-2-6.4-3.9-9.8-5.7z"></path><circle cx="381.6" cy="407.5" r="26" fill="#3dcac3"></circle><path fill="#595959" d="M113.8 301.1v35.3h9.8v-41.7c-3.3 2.1-6.6 4.2-9.8 6.4z"></path><path fill="#3dcac3" d="M159 418.8h-20.9V409h16v-32.3c0-19.5-15.9-35.4-35.4-35.4s-35.4 15.9-35.4 35.4V409h16v9.8H78.4c-2.7 0-4.9-2.2-4.9-4.9v-37.2c0-24.9 20.3-45.2 45.2-45.2s45.2 20.3 45.2 45.2v37.2c0 2.7-2.2 4.9-4.9 4.9z"></path><path fill="#017068" d="M251 297h10v210h-10z"></path><path fill="#00bfb6" d="M94.4 400.9h9.8v26h-9.8zM133.1 400.9h9.8v26h-9.8z"></path><path fill="#3dcac3" d="m227.6 268.7 28.4 28.5-28.4 28.3zM284.4 268.7 256 297.2l28.4 28.5z"></path><path fill="#00bfb6" d="M389.6 382.8c.8 2.5 1.3 5.2 1.3 8.1 0 14.4-11.6 26-26 26-2.8 0-5.5-.5-8.1-1.3 3.4 10.4 13.2 18 24.7 18 14.4 0 26-11.6 26-26 .1-11.6-7.5-21.4-17.9-24.8z"></path><path fill="#017068" d="M376.7 402.6h9.8v9.8h-9.8z"></path></svg>